<svg xmlns="http://www.w3.org/2000/svg" viewBox="0 0 512 512" width="512" height="512">
  <defs>
    <linearGradient id="bg11" x1="0%" y1="0%" x2="100%" y2="100%">
      <stop offset="0%" style="stop-color:#2d1b4e"/>
      <stop offset="100%" style="stop-color:#4a1a6b"/>
    </linearGradient>
  </defs>
  <!-- Background -->
  <rect width="512" height="512" fill="url(#bg11)"/>
  <!-- Outer Circle -->
  <circle cx="256" cy="256" r="200" fill="none" stroke="#d4af37" stroke-width="2"/>
  <!-- Symmetrical Tree -->
  <!-- Trunk -->
  <line x1="256" y1="256" x2="256" y2="380" stroke="#d4af37" stroke-width="4" stroke-linecap="round"/>
  <!-- Roots (mirrored branches going down) -->
  <line x1="256" y1="340" x2="200" y2="400" stroke="#d4af37" stroke-width="2.5" stroke-linecap="round"/>
  <line x1="256" y1="340" x2="312" y2="400" stroke="#d4af37" stroke-width="2.5" stroke-linecap="round"/>
  <line x1="256" y1="370" x2="220" y2="420" stroke="#d4af37" stroke-width="2" stroke-linecap="round"/>
  <line x1="256" y1="370" x2="292" y2="420" stroke="#d4af37" stroke-width="2" stroke-linecap="round"/>
  <!-- Branches (going up) -->
  <line x1="256" y1="256" x2="256" y2="130" stroke="#d4af37" stroke-width="4" stroke-linecap="round"/>
  <line x1="256" y1="180" x2="200" y2="120" stroke="#d4af37" stroke-width="2.5" stroke-linecap="round"/>
  <line x1="256" y1="180" x2="312" y2="120" stroke="#d4af37" stroke-width="2.5" stroke-linecap="round"/>
  <line x1="256" y1="150" x2="180" y2="100" stroke="#d4af37" stroke-width="2" stroke-linecap="round"/>
  <line x1="256" y1="150" x2="332" y2="100" stroke="#d4af37" stroke-width="2" stroke-linecap="round"/>
  <line x1="256" y1="210" x2="170" y2="160" stroke="#d4af37" stroke-width="2" stroke-linecap="round"/>
  <line x1="256" y1="210" x2="342" y2="160" stroke="#d4af37" stroke-width="2" stroke-linecap="round"/>
  <!-- Center point -->
  <circle cx="256" cy="256" r="10" fill="#d4af37"/>
</svg>
