<svg xmlns="http://www.w3.org/2000/svg" viewBox="0 0 512 512" width="512" height="512">
  <defs>
    <linearGradient id="bg8" x1="0%" y1="0%" x2="100%" y2="100%">
      <stop offset="0%" style="stop-color:#1a1a4e"/>
      <stop offset="100%" style="stop-color:#2d1b4e"/>
    </linearGradient>
    <linearGradient id="flame" x1="50%" y1="100%" x2="50%" y2="0%">
      <stop offset="0%" style="stop-color:#d4af37"/>
      <stop offset="100%" style="stop-color:#ffd700"/>
    </linearGradient>
  </defs>
  <!-- Background -->
  <rect width="512" height="512" fill="url(#bg8)"/>
  <!-- Outer Circle -->
  <circle cx="256" cy="256" r="200" fill="none" stroke="#ffffff" stroke-width="2"/>
  <!-- Stylized Flame -->
  <path d="M256 120
           C290 160 340 200 340 280
           C340 340 300 380 256 380
           C212 380 172 340 172 280
           C172 200 222 160 256 120
           Z
           M256 180
           C236 210 210 240 210 290
           C210 330 230 350 256 350
           C282 350 302 330 302 290
           C302 240 276 210 256 180
           Z"
        fill="url(#flame)" fill-rule="evenodd"/>
  <!-- Inner glow dot -->
  <circle cx="256" cy="300" r="20" fill="#ffffff" opacity="0.6"/>
</svg>
