<svg xmlns="http://www.w3.org/2000/svg" viewBox="0 0 512 512" width="512" height="512">
  <defs>
    <linearGradient id="bg9" x1="0%" y1="0%" x2="100%" y2="100%">
      <stop offset="0%" style="stop-color:#0d1b3e"/>
      <stop offset="100%" style="stop-color:#1a2a5e"/>
    </linearGradient>
  </defs>
  <!-- Background -->
  <rect width="512" height="512" fill="url(#bg9)"/>

  <!-- Outer dotted circle (r=200, 36 dots) -->
  <g fill="#ffffff">
    <circle cx="256" cy="56" r="4"/><circle cx="289" cy="58" r="4"/><circle cx="321" cy="65" r="4"/>
    <circle cx="351" cy="77" r="4"/><circle cx="379" cy="94" r="4"/><circle cx="403" cy="115" r="4"/>
    <circle cx="423" cy="140" r="4"/><circle cx="438" cy="168" r="4"/><circle cx="449" cy="199" r="4"/>
    <circle cx="455" cy="231" r="4"/><circle cx="456" cy="264" r="4"/><circle cx="452" cy="297" r="4"/>
    <circle cx="443" cy="328" r="4"/><circle cx="430" cy="358" r="4"/><circle cx="412" cy="384" r="4"/>
    <circle cx="391" cy="407" r="4"/><circle cx="366" cy="426" r="4"/><circle cx="338" cy="440" r="4"/>
    <circle cx="308" cy="450" r="4"/><circle cx="276" cy="455" r="4"/><circle cx="244" cy="455" r="4"/>
    <circle cx="212" cy="450" r="4"/><circle cx="182" cy="440" r="4"/><circle cx="154" cy="426" r="4"/>
    <circle cx="129" cy="407" r="4"/><circle cx="108" cy="384" r="4"/><circle cx="90" cy="358" r="4"/>
    <circle cx="77" cy="328" r="4"/><circle cx="68" cy="297" r="4"/><circle cx="64" cy="264" r="4"/>
    <circle cx="65" cy="231" r="4"/><circle cx="71" cy="199" r="4"/><circle cx="82" cy="168" r="4"/>
    <circle cx="97" cy="140" r="4"/><circle cx="117" cy="115" r="4"/><circle cx="141" cy="94" r="4"/>
    <circle cx="169" cy="77" r="4"/><circle cx="199" cy="65" r="4"/><circle cx="231" cy="58" r="4"/>
  </g>

  <!-- Middle dotted circle (r=140, 24 dots) -->
  <g fill="#ffffff" opacity="0.85">
    <circle cx="256" cy="116" r="3.5"/><circle cx="299" cy="123" r="3.5"/><circle cx="337" cy="143" r="3.5"/>
    <circle cx="368" cy="175" r="3.5"/><circle cx="388" cy="213" r="3.5"/><circle cx="396" cy="256" r="3.5"/>
    <circle cx="388" cy="299" r="3.5"/><circle cx="368" cy="337" r="3.5"/><circle cx="337" cy="369" r="3.5"/>
    <circle cx="299" cy="389" r="3.5"/><circle cx="256" cy="396" r="3.5"/><circle cx="213" cy="389" r="3.5"/>
    <circle cx="175" cy="369" r="3.5"/><circle cx="143" cy="337" r="3.5"/><circle cx="123" cy="299" r="3.5"/>
    <circle cx="116" cy="256" r="3.5"/><circle cx="123" cy="213" r="3.5"/><circle cx="143" cy="175" r="3.5"/>
    <circle cx="175" cy="143" r="3.5"/><circle cx="213" cy="123" r="3.5"/>
  </g>

  <!-- Inner dotted circle (r=80, 16 dots) -->
  <g fill="#ffffff" opacity="0.75">
    <circle cx="256" cy="176" r="3"/><circle cx="287" cy="181" r="3"/><circle cx="313" cy="199" r="3"/>
    <circle cx="331" cy="225" r="3"/><circle cx="336" cy="256" r="3"/><circle cx="331" cy="287" r="3"/>
    <circle cx="313" cy="313" r="3"/><circle cx="287" cy="331" r="3"/><circle cx="256" cy="336" r="3"/>
    <circle cx="225" cy="331" r="3"/><circle cx="199" cy="313" r="3"/><circle cx="181" cy="287" r="3"/>
    <circle cx="176" cy="256" r="3"/><circle cx="181" cy="225" r="3"/><circle cx="199" cy="199" r="3"/>
    <circle cx="225" cy="181" r="3"/>
  </g>

  <!-- Center Dot -->
  <circle cx="256" cy="256" r="14" fill="#ffffff"/>
</svg>
